# xmcd
#
# Track frame offsets: 
#        150
#        19477
#        38266
#        54231
#        72733
#        94535
#        113424
#        132051
#        152203
#        168393
#        187655
#        205474
#        226749
#        247649
#        267553
#        287875
#        304877
#
# Disc length: 4343 seconds
#
# Revision: 0
# Processed by: cddbd v1.5.2PL0 Copyright (c) Steve Scherf et al.
# Submitted via: ExactAudioCopyFreeDBPlugin 1.0
#
DISCID=dd10f511
DTITLE=郑中基 - 敌人
DYEAR=1998
DGENRE=pop
TTITLE0=敌人
TTITLE1=谈何容易
TTITLE2=相思汤
TTITLE3=甲乙丙丁
TTITLE4=音符
TTITLE5=男人
TTITLE6=不许人占有
TTITLE7=蓝天绿草白沙红花
TTITLE8=Broken China
TTITLE9=狂欢
TTITLE10=时间.人物.地点
TTITLE11=搬屋
TTITLE12=天意
TTITLE13=人若然忘记了爱
TTITLE14=相思无用
TTITLE15=戒情人
TTITLE16=真挚
EXTD=
EXTT0=
EXTT1=
EXTT2=
EXTT3=
EXTT4=
EXTT5=
EXTT6=
EXTT7=
EXTT8=
EXTT9=
EXTT10=
EXTT11=
EXTT12=
EXTT13=
EXTT14=
EXTT15=
EXTT16=
PLAYORDER=
